<mxfile host="app.diagrams.net" modified="2022-04-10T08:51:08.810Z" agent="5.0 (Macintosh)" etag="QJo5cFxQGRAeZ7mFDwZK" version="17.4.2" type="github">
  <diagram id="bJ92Hs5TZ8Z7czVXULVL" name="Page-1">
    <mxGraphModel dx="786" dy="1155" grid="1" gridSize="10" guides="1" tooltips="1" connect="1" arrows="1" fold="1" page="1" pageScale="1" pageWidth="1169" pageHeight="1654" math="0" shadow="0">
      <root>
        <mxCell id="0" />
        <mxCell id="1" parent="0" />
        <mxCell id="5HvtsqjPbW2SA4gr3-XW-6" value="" style="rounded=0;whiteSpace=wrap;html=1;strokeColor=#6c8ebf;strokeWidth=4;fillColor=none;" vertex="1" parent="1">
          <mxGeometry x="60" y="320" width="640" height="80" as="geometry" />
        </mxCell>
        <mxCell id="5HvtsqjPbW2SA4gr3-XW-4" value="Thread#start()" style="rounded=0;whiteSpace=wrap;html=1;strokeColor=#6c8ebf;strokeWidth=1;fillColor=#dae8fc;" vertex="1" parent="1">
          <mxGeometry x="80" y="340" width="80" height="40" as="geometry" />
        </mxCell>
        <mxCell id="5HvtsqjPbW2SA4gr3-XW-5" value="Thread#run()" style="rounded=0;whiteSpace=wrap;html=1;strokeColor=#6c8ebf;strokeWidth=1;fillColor=#dae8fc;" vertex="1" parent="1">
          <mxGeometry x="540" y="340" width="80" height="40" as="geometry" />
        </mxCell>
        <mxCell id="5HvtsqjPbW2SA4gr3-XW-7" value="" style="rounded=0;whiteSpace=wrap;html=1;strokeColor=#d79b00;strokeWidth=4;fillColor=none;" vertex="1" parent="1">
          <mxGeometry x="60" y="440" width="640" height="80" as="geometry" />
        </mxCell>
        <mxCell id="5HvtsqjPbW2SA4gr3-XW-8" value="" style="rounded=0;whiteSpace=wrap;html=1;strokeColor=#82b366;strokeWidth=4;fillColor=none;" vertex="1" parent="1">
          <mxGeometry x="60" y="560" width="640" height="80" as="geometry" />
        </mxCell>
        <mxCell id="5HvtsqjPbW2SA4gr3-XW-9" value="JavaThread" style="rounded=0;whiteSpace=wrap;html=1;strokeColor=#d79b00;strokeWidth=1;fillColor=#ffe6cc;" vertex="1" parent="1">
          <mxGeometry x="80" y="460" width="80" height="40" as="geometry" />
        </mxCell>
        <mxCell id="5HvtsqjPbW2SA4gr3-XW-10" value="OSThread" style="rounded=0;whiteSpace=wrap;html=1;strokeColor=#d79b00;strokeWidth=1;fillColor=#ffe6cc;" vertex="1" parent="1">
          <mxGeometry x="200" y="460" width="80" height="40" as="geometry" />
        </mxCell>
        <mxCell id="5HvtsqjPbW2SA4gr3-XW-11" value="系统线程" style="rounded=0;whiteSpace=wrap;html=1;strokeColor=#82b366;strokeWidth=1;fillColor=#d5e8d4;" vertex="1" parent="1">
          <mxGeometry x="80" y="580" width="80" height="40" as="geometry" />
        </mxCell>
        <mxCell id="5HvtsqjPbW2SA4gr3-XW-12" value="Stack" style="shape=trapezoid;perimeter=trapezoidPerimeter;whiteSpace=wrap;html=1;fixedSize=1;strokeColor=#d79b00;strokeWidth=1;fillColor=#ffe6cc;" vertex="1" parent="1">
          <mxGeometry x="320" y="460" width="80" height="40" as="geometry" />
        </mxCell>
        <mxCell id="5HvtsqjPbW2SA4gr3-XW-13" value="TLAB" style="shape=cylinder3;whiteSpace=wrap;html=1;boundedLbl=1;backgroundOutline=1;size=4.758620689655231;strokeColor=#d79b00;strokeWidth=1;fillColor=#ffe6cc;" vertex="1" parent="1">
          <mxGeometry x="440" y="460" width="80" height="40" as="geometry" />
        </mxCell>
        <mxCell id="5HvtsqjPbW2SA4gr3-XW-14" value="" style="ellipse;whiteSpace=wrap;html=1;strokeColor=#d79b00;strokeWidth=1;fillColor=#ffe6cc;" vertex="1" parent="1">
          <mxGeometry x="560" y="450" width="40" height="60" as="geometry" />
        </mxCell>
        <mxCell id="5HvtsqjPbW2SA4gr3-XW-15" value="" style="ellipse;whiteSpace=wrap;html=1;strokeColor=#d79b00;strokeWidth=1;fillColor=#ffe6cc;" vertex="1" parent="1">
          <mxGeometry x="640" y="450" width="40" height="60" as="geometry" />
        </mxCell>
        <mxCell id="5HvtsqjPbW2SA4gr3-XW-16" value="Ready" style="rounded=0;whiteSpace=wrap;html=1;strokeColor=#82b366;strokeWidth=1;fillColor=#d5e8d4;" vertex="1" parent="1">
          <mxGeometry x="480" y="580" width="80" height="40" as="geometry" />
        </mxCell>
        <mxCell id="5HvtsqjPbW2SA4gr3-XW-17" value="Terminate" style="rounded=0;whiteSpace=wrap;html=1;strokeColor=#82b366;strokeWidth=1;fillColor=#d5e8d4;" vertex="1" parent="1">
          <mxGeometry x="600" y="580" width="80" height="40" as="geometry" />
        </mxCell>
        <mxCell id="5HvtsqjPbW2SA4gr3-XW-18" value="Java 层面" style="text;html=1;strokeColor=#6c8ebf;fillColor=#dae8fc;align=center;verticalAlign=middle;whiteSpace=wrap;rounded=0;strokeWidth=4;" vertex="1" parent="1">
          <mxGeometry x="700" y="320" width="80" height="80" as="geometry" />
        </mxCell>
        <mxCell id="5HvtsqjPbW2SA4gr3-XW-19" value="JVM 层面" style="text;html=1;strokeColor=#d79b00;fillColor=#ffe6cc;align=center;verticalAlign=middle;whiteSpace=wrap;rounded=0;strokeWidth=4;" vertex="1" parent="1">
          <mxGeometry x="700" y="440" width="80" height="80" as="geometry" />
        </mxCell>
        <mxCell id="5HvtsqjPbW2SA4gr3-XW-20" value="OS 层面" style="text;html=1;strokeColor=#82b366;fillColor=#d5e8d4;align=center;verticalAlign=middle;whiteSpace=wrap;rounded=0;strokeWidth=4;" vertex="1" parent="1">
          <mxGeometry x="700" y="560" width="80" height="80" as="geometry" />
        </mxCell>
      </root>
    </mxGraphModel>
  </diagram>
</mxfile>
